# xmcd
#
# Track frame offsets:
#	150
#	16169
#	32692
#	47723
#	61273
#	75839
#	90476
#	103932
#	115222
#	130945
#
# Disc length: 1931 seconds
#
# Revision: 0
# Processed by: cddbd v1.5.1PL0 Copyright (c) Steve Scherf et al.
# Submitted via: audiograbber 1.83.01
#
DISCID=7107890a
DTITLE=Strait, George - Always Never The Same - Strait, George - Always Never T
DTITLE=he Same
DYEAR=1999
DGENRE=Country
TTITLE0=Meanwhile
TTITLE1=Write This Down
TTITLE2=That's The Truth
TTITLE3=What Do You Say To That
TTITLE4=Peace Of Mind
TTITLE5=That's Where I Wanna Take Our Love
TTITLE6=Always Never The Same
TTITLE7=One Of You
TTITLE8=I Look At You
TTITLE9=4 Minus 3 Equals Zero
EXTD=
EXTT0=
EXTT1=
EXTT2=
EXTT3=
EXTT4=
EXTT5=
EXTT6=
EXTT7=
EXTT8=
EXTT9=
PLAYORDER=
